<mxfile host="app.diagrams.net" modified="2024-05-01T11:55:27.120Z" agent="Mozilla/5.0 (Windows NT 10.0; Win64; x64) AppleWebKit/537.36 (KHTML, like Gecko) Chrome/122.0.0.0 Safari/537.36" etag="LV1D6k1C78NqrC-LYa6n" version="24.3.1" type="github" pages="2">
  <diagram name="1.1" id="nfdcM0c4wXf5hXsMhUmT">
    <mxGraphModel dx="-4" dy="522" grid="1" gridSize="10" guides="1" tooltips="1" connect="1" arrows="1" fold="1" page="1" pageScale="1" pageWidth="827" pageHeight="1169" math="0" shadow="0">
      <root>
        <mxCell id="0" />
        <mxCell id="1" parent="0" />
        <mxCell id="uF4-LOTF9BwFzXB2GKBF-1" value="" style="rounded=0;whiteSpace=wrap;html=1;fontFamily=Times New Roman;fontSize=11;fillColor=none;dashed=1;strokeWidth=0.5;" parent="1" vertex="1">
          <mxGeometry x="1128.19" y="80" width="160" height="240" as="geometry" />
        </mxCell>
        <mxCell id="uF4-LOTF9BwFzXB2GKBF-2" value="" style="rounded=0;whiteSpace=wrap;html=1;fontFamily=Times New Roman;fontSize=11;fillColor=none;dashed=1;strokeWidth=0.5;" parent="1" vertex="1">
          <mxGeometry x="1296.56" y="80" width="163.44" height="240" as="geometry" />
        </mxCell>
        <mxCell id="uF4-LOTF9BwFzXB2GKBF-3" value="" style="rounded=0;whiteSpace=wrap;html=1;fontFamily=Times New Roman;fontSize=11;fillColor=none;dashed=1;strokeWidth=0.5;" parent="1" vertex="1">
          <mxGeometry x="960" y="80" width="160" height="240" as="geometry" />
        </mxCell>
        <mxCell id="uF4-LOTF9BwFzXB2GKBF-4" value="分片1" style="text;html=1;align=center;verticalAlign=middle;resizable=0;points=[];autosize=1;strokeColor=none;fillColor=none;" parent="1" vertex="1">
          <mxGeometry x="960" y="80" width="50" height="30" as="geometry" />
        </mxCell>
        <mxCell id="uF4-LOTF9BwFzXB2GKBF-5" style="rounded=0;orthogonalLoop=1;jettySize=auto;html=1;entryX=0.5;entryY=1;entryDx=0;entryDy=0;" parent="1" source="uF4-LOTF9BwFzXB2GKBF-6" target="uF4-LOTF9BwFzXB2GKBF-18" edge="1">
          <mxGeometry relative="1" as="geometry">
            <mxPoint x="1090" y="120" as="targetPoint" />
          </mxGeometry>
        </mxCell>
        <mxCell id="uF4-LOTF9BwFzXB2GKBF-6" value="" style="shape=actor;whiteSpace=wrap;html=1;" parent="1" vertex="1">
          <mxGeometry x="981.81" y="200" width="20" height="30" as="geometry" />
        </mxCell>
        <mxCell id="uF4-LOTF9BwFzXB2GKBF-7" value="" style="shape=actor;whiteSpace=wrap;html=1;" parent="1" vertex="1">
          <mxGeometry x="1052.72" y="200" width="20" height="30" as="geometry" />
        </mxCell>
        <mxCell id="uF4-LOTF9BwFzXB2GKBF-8" value="A" style="text;html=1;align=center;verticalAlign=middle;resizable=0;points=[];autosize=1;strokeColor=none;fillColor=none;" parent="1" vertex="1">
          <mxGeometry x="976.8800000000001" y="230" width="30" height="30" as="geometry" />
        </mxCell>
        <mxCell id="uF4-LOTF9BwFzXB2GKBF-9" value="C" style="text;html=1;align=center;verticalAlign=middle;resizable=0;points=[];autosize=1;strokeColor=none;fillColor=none;" parent="1" vertex="1">
          <mxGeometry x="1047.7199999999998" y="230" width="30" height="30" as="geometry" />
        </mxCell>
        <mxCell id="uF4-LOTF9BwFzXB2GKBF-10" value="&lt;font style=&quot;font-size: 11px;&quot;&gt;tx&lt;sub style=&quot;border-color: var(--border-color); text-align: center; font-size: 11px;&quot;&gt;2&lt;/sub&gt;&lt;span style=&quot;border-color: var(--border-color); text-align: center; font-size: 11px;&quot;&gt;:&amp;nbsp;&lt;/span&gt;&lt;span style=&quot;border-color: var(--border-color); text-align: center; font-size: 11px;&quot;&gt;Item to B&lt;/span&gt;&lt;/font&gt;" style="text;whiteSpace=wrap;html=1;rotation=-55;" parent="1" vertex="1">
          <mxGeometry x="981.8100000000002" y="140" width="80" height="30" as="geometry" />
        </mxCell>
        <mxCell id="uF4-LOTF9BwFzXB2GKBF-11" value="tx&lt;sub&gt;1&lt;/sub&gt;" style="whiteSpace=wrap;html=1;" parent="1" vertex="1">
          <mxGeometry x="970" y="278.75" width="20" height="15" as="geometry" />
        </mxCell>
        <mxCell id="uF4-LOTF9BwFzXB2GKBF-12" style="edgeStyle=orthogonalEdgeStyle;rounded=0;orthogonalLoop=1;jettySize=auto;html=1;entryX=1;entryY=0.5;entryDx=0;entryDy=0;" parent="1" source="uF4-LOTF9BwFzXB2GKBF-13" target="uF4-LOTF9BwFzXB2GKBF-11" edge="1">
          <mxGeometry relative="1" as="geometry" />
        </mxCell>
        <mxCell id="uF4-LOTF9BwFzXB2GKBF-13" value="tx&lt;sub&gt;2&lt;/sub&gt;" style="whiteSpace=wrap;html=1;" parent="1" vertex="1">
          <mxGeometry x="1010" y="278.75" width="19.58" height="15" as="geometry" />
        </mxCell>
        <mxCell id="uF4-LOTF9BwFzXB2GKBF-14" style="edgeStyle=orthogonalEdgeStyle;rounded=0;orthogonalLoop=1;jettySize=auto;html=1;entryX=1;entryY=0.5;entryDx=0;entryDy=0;" parent="1" source="uF4-LOTF9BwFzXB2GKBF-22" target="uF4-LOTF9BwFzXB2GKBF-13" edge="1">
          <mxGeometry relative="1" as="geometry" />
        </mxCell>
        <mxCell id="uF4-LOTF9BwFzXB2GKBF-15" value="&amp;nbsp;" style="text;html=1;align=center;verticalAlign=middle;resizable=0;points=[];autosize=1;strokeColor=none;fillColor=none;" parent="1" vertex="1">
          <mxGeometry x="1168.19" y="285" width="30" height="30" as="geometry" />
        </mxCell>
        <mxCell id="uF4-LOTF9BwFzXB2GKBF-16" value="tx&lt;sub style=&quot;border-color: var(--border-color); text-align: center;&quot;&gt;4&lt;/sub&gt;&lt;span style=&quot;border-color: var(--border-color); text-align: center;&quot;&gt;:&amp;nbsp;&lt;/span&gt;&lt;span style=&quot;border-color: var(--border-color); font-size: 10px; text-align: center;&quot;&gt;Item to D&lt;/span&gt;" style="text;whiteSpace=wrap;html=1;" parent="1" vertex="1">
          <mxGeometry x="1084.7100000000003" y="190" width="80" height="30" as="geometry" />
        </mxCell>
        <mxCell id="uF4-LOTF9BwFzXB2GKBF-17" style="rounded=0;orthogonalLoop=1;jettySize=auto;html=1;entryX=0.5;entryY=0;entryDx=0;entryDy=0;exitX=0.5;exitY=1;exitDx=0;exitDy=0;" parent="1" source="uF4-LOTF9BwFzXB2GKBF-18" target="uF4-LOTF9BwFzXB2GKBF-7" edge="1">
          <mxGeometry relative="1" as="geometry" />
        </mxCell>
        <mxCell id="uF4-LOTF9BwFzXB2GKBF-18" value="" style="shape=actor;whiteSpace=wrap;html=1;" parent="1" vertex="1">
          <mxGeometry x="1052.72" y="88.75" width="20" height="30" as="geometry" />
        </mxCell>
        <mxCell id="uF4-LOTF9BwFzXB2GKBF-19" value="B" style="text;html=1;align=center;verticalAlign=middle;resizable=0;points=[];autosize=1;strokeColor=none;fillColor=none;" parent="1" vertex="1">
          <mxGeometry x="1072.7199999999998" y="85" width="30" height="30" as="geometry" />
        </mxCell>
        <mxCell id="uF4-LOTF9BwFzXB2GKBF-20" value="&lt;font style=&quot;font-size: 11px;&quot;&gt;tx&lt;sub style=&quot;border-color: var(--border-color); text-align: center;&quot;&gt;3&lt;/sub&gt;&lt;span style=&quot;border-color: var(--border-color); text-align: center;&quot;&gt;:&amp;nbsp;&lt;/span&gt;&lt;span style=&quot;border-color: var(--border-color); text-align: center;&quot;&gt;Item to C&lt;/span&gt;&lt;/font&gt;" style="text;whiteSpace=wrap;html=1;rotation=90;" parent="1" vertex="1">
          <mxGeometry x="1030.0000000000005" y="151.25" width="80" height="30" as="geometry" />
        </mxCell>
        <mxCell id="uF4-LOTF9BwFzXB2GKBF-21" value="&lt;font style=&quot;font-size: 11px;&quot;&gt;tx&lt;sub style=&quot;border-color: var(--border-color); text-align: center;&quot;&gt;1&lt;/sub&gt;&lt;span style=&quot;border-color: var(--border-color); text-align: center;&quot;&gt;: I have&amp;nbsp;&amp;nbsp;&lt;/span&gt;&lt;span style=&quot;border-color: var(--border-color); text-align: center;&quot;&gt;Item&lt;/span&gt;&lt;/font&gt;" style="text;whiteSpace=wrap;html=1;" parent="1" vertex="1">
          <mxGeometry x="976.8799999999999" y="250" width="100" height="30" as="geometry" />
        </mxCell>
        <mxCell id="uF4-LOTF9BwFzXB2GKBF-22" value="tx&lt;sub&gt;3&lt;/sub&gt;" style="whiteSpace=wrap;html=1;" parent="1" vertex="1">
          <mxGeometry x="1050" y="278.75" width="20" height="15" as="geometry" />
        </mxCell>
        <mxCell id="uF4-LOTF9BwFzXB2GKBF-23" value="&lt;font style=&quot;font-size: 11px;&quot;&gt;tx&lt;sub&gt;5&lt;/sub&gt;&lt;span style=&quot;border-color: var(--border-color); text-align: center; font-size: 11px;&quot;&gt;:&amp;nbsp;&lt;/span&gt;&lt;span style=&quot;border-color: var(--border-color); text-align: center; font-size: 11px;&quot;&gt;Item to E&lt;/span&gt;&lt;/font&gt;" style="text;whiteSpace=wrap;html=1;rotation=-55;" parent="1" vertex="1">
          <mxGeometry x="1168.1900000000003" y="140" width="80" height="30" as="geometry" />
        </mxCell>
        <mxCell id="uF4-LOTF9BwFzXB2GKBF-24" value="&lt;font style=&quot;font-size: 11px;&quot;&gt;tx&lt;/font&gt;&lt;font style=&quot;&quot;&gt;&lt;font size=&quot;1&quot;&gt;&lt;sub&gt;6&lt;/sub&gt;&lt;/font&gt;&lt;span style=&quot;font-size: 11px; border-color: var(--border-color); text-align: center;&quot;&gt;:&amp;nbsp;&lt;/span&gt;&lt;span style=&quot;font-size: 11px; border-color: var(--border-color); text-align: center;&quot;&gt;Item to F&lt;/span&gt;&lt;/font&gt;" style="text;whiteSpace=wrap;html=1;rotation=90;" parent="1" vertex="1">
          <mxGeometry x="1216.5600000000004" y="150" width="80" height="30" as="geometry" />
        </mxCell>
        <mxCell id="uF4-LOTF9BwFzXB2GKBF-25" value="分片2" style="text;html=1;align=center;verticalAlign=middle;resizable=0;points=[];autosize=1;strokeColor=none;fillColor=none;" parent="1" vertex="1">
          <mxGeometry x="1130" y="81.25" width="50" height="30" as="geometry" />
        </mxCell>
        <mxCell id="uF4-LOTF9BwFzXB2GKBF-26" style="rounded=0;orthogonalLoop=1;jettySize=auto;html=1;entryX=0.5;entryY=1;entryDx=0;entryDy=0;" parent="1" source="uF4-LOTF9BwFzXB2GKBF-27" target="uF4-LOTF9BwFzXB2GKBF-32" edge="1">
          <mxGeometry relative="1" as="geometry">
            <mxPoint x="1272.9" y="120" as="targetPoint" />
          </mxGeometry>
        </mxCell>
        <mxCell id="uF4-LOTF9BwFzXB2GKBF-27" value="" style="shape=actor;whiteSpace=wrap;html=1;" parent="1" vertex="1">
          <mxGeometry x="1164.71" y="200" width="20" height="30" as="geometry" />
        </mxCell>
        <mxCell id="uF4-LOTF9BwFzXB2GKBF-28" value="" style="shape=actor;whiteSpace=wrap;html=1;" parent="1" vertex="1">
          <mxGeometry x="1235.6200000000001" y="200" width="20" height="30" as="geometry" />
        </mxCell>
        <mxCell id="uF4-LOTF9BwFzXB2GKBF-29" value="D" style="text;html=1;align=center;verticalAlign=middle;resizable=0;points=[];autosize=1;strokeColor=none;fillColor=none;" parent="1" vertex="1">
          <mxGeometry x="1159.7800000000002" y="230" width="30" height="30" as="geometry" />
        </mxCell>
        <mxCell id="uF4-LOTF9BwFzXB2GKBF-30" value="F" style="text;html=1;align=center;verticalAlign=middle;resizable=0;points=[];autosize=1;strokeColor=none;fillColor=none;" parent="1" vertex="1">
          <mxGeometry x="1230.62" y="230" width="30" height="30" as="geometry" />
        </mxCell>
        <mxCell id="uF4-LOTF9BwFzXB2GKBF-31" style="rounded=0;orthogonalLoop=1;jettySize=auto;html=1;entryX=0.5;entryY=0;entryDx=0;entryDy=0;exitX=0.5;exitY=1;exitDx=0;exitDy=0;" parent="1" source="uF4-LOTF9BwFzXB2GKBF-32" target="uF4-LOTF9BwFzXB2GKBF-28" edge="1">
          <mxGeometry relative="1" as="geometry" />
        </mxCell>
        <mxCell id="uF4-LOTF9BwFzXB2GKBF-32" value="" style="shape=actor;whiteSpace=wrap;html=1;" parent="1" vertex="1">
          <mxGeometry x="1235.6200000000001" y="88.75" width="20" height="30" as="geometry" />
        </mxCell>
        <mxCell id="uF4-LOTF9BwFzXB2GKBF-33" value="E" style="text;html=1;align=center;verticalAlign=middle;resizable=0;points=[];autosize=1;strokeColor=none;fillColor=none;" parent="1" vertex="1">
          <mxGeometry x="1255.62" y="85" width="30" height="30" as="geometry" />
        </mxCell>
        <mxCell id="uF4-LOTF9BwFzXB2GKBF-34" style="edgeStyle=orthogonalEdgeStyle;rounded=0;orthogonalLoop=1;jettySize=auto;html=1;entryX=0.1;entryY=0.5;entryDx=0;entryDy=0;entryPerimeter=0;" parent="1" source="uF4-LOTF9BwFzXB2GKBF-7" target="uF4-LOTF9BwFzXB2GKBF-27" edge="1">
          <mxGeometry relative="1" as="geometry" />
        </mxCell>
        <mxCell id="uF4-LOTF9BwFzXB2GKBF-35" style="edgeStyle=orthogonalEdgeStyle;rounded=0;orthogonalLoop=1;jettySize=auto;html=1;entryX=1;entryY=0.5;entryDx=0;entryDy=0;" parent="1" source="uF4-LOTF9BwFzXB2GKBF-36" target="uF4-LOTF9BwFzXB2GKBF-22" edge="1">
          <mxGeometry relative="1" as="geometry" />
        </mxCell>
        <mxCell id="uF4-LOTF9BwFzXB2GKBF-36" value="tx&lt;sub&gt;4&lt;/sub&gt;" style="whiteSpace=wrap;html=1;" parent="1" vertex="1">
          <mxGeometry x="1090" y="278.75" width="20" height="15" as="geometry" />
        </mxCell>
        <mxCell id="uF4-LOTF9BwFzXB2GKBF-37" value="tx&lt;sub&gt;4&lt;/sub&gt;" style="whiteSpace=wrap;html=1;" parent="1" vertex="1">
          <mxGeometry x="1138.19" y="278.75" width="20" height="15" as="geometry" />
        </mxCell>
        <mxCell id="uF4-LOTF9BwFzXB2GKBF-38" style="edgeStyle=orthogonalEdgeStyle;rounded=0;orthogonalLoop=1;jettySize=auto;html=1;entryX=1;entryY=0.5;entryDx=0;entryDy=0;" parent="1" source="uF4-LOTF9BwFzXB2GKBF-39" target="uF4-LOTF9BwFzXB2GKBF-37" edge="1">
          <mxGeometry relative="1" as="geometry" />
        </mxCell>
        <mxCell id="uF4-LOTF9BwFzXB2GKBF-39" value="tx&lt;sub&gt;5&lt;/sub&gt;" style="whiteSpace=wrap;html=1;" parent="1" vertex="1">
          <mxGeometry x="1178.19" y="278.75" width="19.58" height="15" as="geometry" />
        </mxCell>
        <mxCell id="uF4-LOTF9BwFzXB2GKBF-40" style="edgeStyle=orthogonalEdgeStyle;rounded=0;orthogonalLoop=1;jettySize=auto;html=1;entryX=1;entryY=0.5;entryDx=0;entryDy=0;" parent="1" source="uF4-LOTF9BwFzXB2GKBF-41" target="uF4-LOTF9BwFzXB2GKBF-39" edge="1">
          <mxGeometry relative="1" as="geometry" />
        </mxCell>
        <mxCell id="uF4-LOTF9BwFzXB2GKBF-41" value="tx&lt;sub&gt;6&lt;/sub&gt;" style="whiteSpace=wrap;html=1;" parent="1" vertex="1">
          <mxGeometry x="1218.19" y="278.75" width="20" height="15" as="geometry" />
        </mxCell>
        <mxCell id="uF4-LOTF9BwFzXB2GKBF-42" style="edgeStyle=orthogonalEdgeStyle;rounded=0;orthogonalLoop=1;jettySize=auto;html=1;entryX=1;entryY=0.5;entryDx=0;entryDy=0;" parent="1" source="uF4-LOTF9BwFzXB2GKBF-43" target="uF4-LOTF9BwFzXB2GKBF-41" edge="1">
          <mxGeometry relative="1" as="geometry" />
        </mxCell>
        <mxCell id="uF4-LOTF9BwFzXB2GKBF-43" value="tx&lt;span style=&quot;font-size: 10px;&quot;&gt;7&lt;/span&gt;" style="whiteSpace=wrap;html=1;" parent="1" vertex="1">
          <mxGeometry x="1258.19" y="278.75" width="20" height="15" as="geometry" />
        </mxCell>
        <mxCell id="uF4-LOTF9BwFzXB2GKBF-44" value="&amp;nbsp;" style="text;html=1;align=center;verticalAlign=middle;resizable=0;points=[];autosize=1;strokeColor=none;fillColor=none;" parent="1" vertex="1">
          <mxGeometry x="1334.75" y="285" width="30" height="30" as="geometry" />
        </mxCell>
        <mxCell id="uF4-LOTF9BwFzXB2GKBF-45" value="&lt;font style=&quot;font-size: 11px;&quot;&gt;tx&lt;sub&gt;8&lt;/sub&gt;&lt;span style=&quot;border-color: var(--border-color); text-align: center; font-size: 11px;&quot;&gt;:&amp;nbsp;&lt;/span&gt;&lt;span style=&quot;border-color: var(--border-color); text-align: center; font-size: 11px;&quot;&gt;Item to H&lt;/span&gt;&lt;/font&gt;" style="text;whiteSpace=wrap;html=1;rotation=-55;" parent="1" vertex="1">
          <mxGeometry x="1334.7500000000002" y="140" width="80" height="30" as="geometry" />
        </mxCell>
        <mxCell id="uF4-LOTF9BwFzXB2GKBF-46" value="&lt;font style=&quot;font-size: 11px;&quot;&gt;tx&lt;sub style=&quot;border-color: var(--border-color); text-align: center;&quot;&gt;9&lt;/sub&gt;&lt;span style=&quot;border-color: var(--border-color); text-align: center;&quot;&gt;:&amp;nbsp;&lt;/span&gt;&lt;span style=&quot;border-color: var(--border-color); text-align: center;&quot;&gt;Item to I&lt;/span&gt;&lt;/font&gt;" style="text;whiteSpace=wrap;html=1;rotation=90;" parent="1" vertex="1">
          <mxGeometry x="1383.1200000000003" y="150" width="80" height="30" as="geometry" />
        </mxCell>
        <mxCell id="uF4-LOTF9BwFzXB2GKBF-47" value="分片3" style="text;html=1;align=center;verticalAlign=middle;resizable=0;points=[];autosize=1;strokeColor=none;fillColor=none;" parent="1" vertex="1">
          <mxGeometry x="1296.56" y="80" width="50" height="30" as="geometry" />
        </mxCell>
        <mxCell id="uF4-LOTF9BwFzXB2GKBF-48" style="rounded=0;orthogonalLoop=1;jettySize=auto;html=1;entryX=0.5;entryY=1;entryDx=0;entryDy=0;" parent="1" source="uF4-LOTF9BwFzXB2GKBF-49" target="uF4-LOTF9BwFzXB2GKBF-54" edge="1">
          <mxGeometry relative="1" as="geometry">
            <mxPoint x="1439.46" y="120" as="targetPoint" />
          </mxGeometry>
        </mxCell>
        <mxCell id="uF4-LOTF9BwFzXB2GKBF-49" value="" style="shape=actor;whiteSpace=wrap;html=1;" parent="1" vertex="1">
          <mxGeometry x="1331.27" y="200" width="20" height="30" as="geometry" />
        </mxCell>
        <mxCell id="uF4-LOTF9BwFzXB2GKBF-50" value="" style="shape=actor;whiteSpace=wrap;html=1;" parent="1" vertex="1">
          <mxGeometry x="1402.18" y="200" width="20" height="30" as="geometry" />
        </mxCell>
        <mxCell id="uF4-LOTF9BwFzXB2GKBF-51" value="G" style="text;html=1;align=center;verticalAlign=middle;resizable=0;points=[];autosize=1;strokeColor=none;fillColor=none;" parent="1" vertex="1">
          <mxGeometry x="1326.3400000000001" y="230" width="30" height="30" as="geometry" />
        </mxCell>
        <mxCell id="uF4-LOTF9BwFzXB2GKBF-52" value="I" style="text;html=1;align=center;verticalAlign=middle;resizable=0;points=[];autosize=1;strokeColor=none;fillColor=none;" parent="1" vertex="1">
          <mxGeometry x="1397.1799999999998" y="230" width="30" height="30" as="geometry" />
        </mxCell>
        <mxCell id="uF4-LOTF9BwFzXB2GKBF-53" style="rounded=0;orthogonalLoop=1;jettySize=auto;html=1;entryX=0.5;entryY=0;entryDx=0;entryDy=0;exitX=0.5;exitY=1;exitDx=0;exitDy=0;" parent="1" source="uF4-LOTF9BwFzXB2GKBF-54" target="uF4-LOTF9BwFzXB2GKBF-50" edge="1">
          <mxGeometry relative="1" as="geometry" />
        </mxCell>
        <mxCell id="uF4-LOTF9BwFzXB2GKBF-54" value="" style="shape=actor;whiteSpace=wrap;html=1;" parent="1" vertex="1">
          <mxGeometry x="1402.18" y="88.75" width="20" height="30" as="geometry" />
        </mxCell>
        <mxCell id="uF4-LOTF9BwFzXB2GKBF-55" value="H" style="text;html=1;align=center;verticalAlign=middle;resizable=0;points=[];autosize=1;strokeColor=none;fillColor=none;" parent="1" vertex="1">
          <mxGeometry x="1422.1799999999998" y="85" width="30" height="30" as="geometry" />
        </mxCell>
        <mxCell id="uF4-LOTF9BwFzXB2GKBF-56" value="tx&lt;sub&gt;7&lt;/sub&gt;" style="whiteSpace=wrap;html=1;" parent="1" vertex="1">
          <mxGeometry x="1304.75" y="278.75" width="20" height="15" as="geometry" />
        </mxCell>
        <mxCell id="uF4-LOTF9BwFzXB2GKBF-57" style="edgeStyle=orthogonalEdgeStyle;rounded=0;orthogonalLoop=1;jettySize=auto;html=1;entryX=1;entryY=0.5;entryDx=0;entryDy=0;" parent="1" source="uF4-LOTF9BwFzXB2GKBF-58" target="uF4-LOTF9BwFzXB2GKBF-56" edge="1">
          <mxGeometry relative="1" as="geometry" />
        </mxCell>
        <mxCell id="uF4-LOTF9BwFzXB2GKBF-58" value="tx&lt;sub&gt;8&lt;/sub&gt;" style="whiteSpace=wrap;html=1;" parent="1" vertex="1">
          <mxGeometry x="1344.75" y="278.75" width="19.58" height="15" as="geometry" />
        </mxCell>
        <mxCell id="uF4-LOTF9BwFzXB2GKBF-59" style="edgeStyle=orthogonalEdgeStyle;rounded=0;orthogonalLoop=1;jettySize=auto;html=1;entryX=1;entryY=0.5;entryDx=0;entryDy=0;" parent="1" source="uF4-LOTF9BwFzXB2GKBF-60" target="uF4-LOTF9BwFzXB2GKBF-58" edge="1">
          <mxGeometry relative="1" as="geometry" />
        </mxCell>
        <mxCell id="uF4-LOTF9BwFzXB2GKBF-60" value="tx&lt;sub&gt;9&lt;/sub&gt;" style="whiteSpace=wrap;html=1;" parent="1" vertex="1">
          <mxGeometry x="1384.75" y="278.75" width="20" height="15" as="geometry" />
        </mxCell>
        <mxCell id="uF4-LOTF9BwFzXB2GKBF-61" style="edgeStyle=orthogonalEdgeStyle;rounded=0;orthogonalLoop=1;jettySize=auto;html=1;entryX=0.1;entryY=0.5;entryDx=0;entryDy=0;entryPerimeter=0;" parent="1" source="uF4-LOTF9BwFzXB2GKBF-28" target="uF4-LOTF9BwFzXB2GKBF-49" edge="1">
          <mxGeometry relative="1" as="geometry" />
        </mxCell>
        <mxCell id="uF4-LOTF9BwFzXB2GKBF-62" value="tx&lt;sub style=&quot;border-color: var(--border-color); text-align: center;&quot;&gt;7&lt;/sub&gt;&lt;span style=&quot;border-color: var(--border-color); text-align: center;&quot;&gt;:&amp;nbsp;&lt;/span&gt;&lt;span style=&quot;border-color: var(--border-color); font-size: 10px; text-align: center;&quot;&gt;Item to G&lt;/span&gt;" style="text;whiteSpace=wrap;html=1;" parent="1" vertex="1">
          <mxGeometry x="1258.1900000000003" y="190" width="80" height="30" as="geometry" />
        </mxCell>
        <mxCell id="uF4-LOTF9BwFzXB2GKBF-63" value="" style="endArrow=classic;html=1;rounded=0;strokeColor=#FF0000;" parent="1" edge="1">
          <mxGeometry width="50" height="50" relative="1" as="geometry">
            <mxPoint x="1394.75" y="310" as="sourcePoint" />
            <mxPoint x="1344.75" y="310" as="targetPoint" />
          </mxGeometry>
        </mxCell>
        <mxCell id="uF4-LOTF9BwFzXB2GKBF-64" value="" style="endArrow=classic;html=1;rounded=0;strokeColor=#FF0000;dashed=1;" parent="1" edge="1">
          <mxGeometry width="50" height="50" relative="1" as="geometry">
            <mxPoint x="1320" y="310" as="sourcePoint" />
            <mxPoint x="1270" y="310" as="targetPoint" />
          </mxGeometry>
        </mxCell>
        <mxCell id="uF4-LOTF9BwFzXB2GKBF-65" value="" style="endArrow=classic;html=1;rounded=0;strokeColor=#FF0000;" parent="1" edge="1">
          <mxGeometry width="50" height="50" relative="1" as="geometry">
            <mxPoint x="1239.78" y="310" as="sourcePoint" />
            <mxPoint x="1189.78" y="310" as="targetPoint" />
          </mxGeometry>
        </mxCell>
        <mxCell id="uF4-LOTF9BwFzXB2GKBF-66" value="" style="endArrow=classic;html=1;rounded=0;strokeColor=#FF0000;dashed=1;" parent="1" edge="1">
          <mxGeometry width="50" height="50" relative="1" as="geometry">
            <mxPoint x="1149.71" y="310" as="sourcePoint" />
            <mxPoint x="1099.71" y="310" as="targetPoint" />
          </mxGeometry>
        </mxCell>
        <mxCell id="uF4-LOTF9BwFzXB2GKBF-67" value="" style="endArrow=classic;html=1;rounded=0;strokeColor=#FF0000;" parent="1" edge="1">
          <mxGeometry width="50" height="50" relative="1" as="geometry">
            <mxPoint x="1060" y="310" as="sourcePoint" />
            <mxPoint x="1010" y="310" as="targetPoint" />
          </mxGeometry>
        </mxCell>
      </root>
    </mxGraphModel>
  </diagram>
  <diagram id="I3PrCx60QsD0ic2mmvKQ" name="第 2 页">
    <mxGraphModel dx="823" dy="522" grid="1" gridSize="10" guides="1" tooltips="1" connect="1" arrows="1" fold="1" page="1" pageScale="1" pageWidth="827" pageHeight="1169" math="0" shadow="0">
      <root>
        <mxCell id="0" />
        <mxCell id="1" parent="0" />
      </root>
    </mxGraphModel>
  </diagram>
</mxfile>
